# xmcd
#
# Track frame offsets: 
#        150
#        16091
#        32096
#        49220
#        65343
#        80271
#        91674
#        108537
#        131385
#        149996
#        166433
#        178083
#        192960
#        210524
#        222460
#        241828
#        261059
#        279073
#        293982
#        312624
#        332965
#
# Disc length: 4692 seconds
#
# Revision: 0
# Processed by: cddbd v1.5.2PL0 Copyright (c) Steve Scherf et al.
# Submitted via: ExactAudioCopy v1.0b3
#
DISCID=39125215
DTITLE=Юрий Антонов - Лучшие хиты 2003
DYEAR=2003
DGENRE=Pop
TTITLE0=На высоком берегу
TTITLE1=Зеркало
TTITLE2=Не забывай
TTITLE3=Двадцать лет спустя
TTITLE4=Вот как бывает
TTITLE5=Мое богатство
TTITLE6=Я иду тебе навстречу
TTITLE7=Лунная дорожка
TTITLE8=От печали до радости
TTITLE9=Хмельная сирень
TTITLE10=Крыша дома твоего
TTITLE11=Белый теплоход
TTITLE12=А где-то
TTITLE13=Море
TTITLE14=Не говорите мне прощай
TTITLE15=Поправляйся, выздоравливай скорей
TTITLE16=Переулочки Арбата
TTITLE17=Золотая лестница
TTITLE18=На улице Каштановой
TTITLE19=Берегите женщин
TTITLE20=Мечта 2003 (Dj A-Lex Remix)
EXTD=
EXTT0=
EXTT1=
EXTT2=
EXTT3=
EXTT4=
EXTT5=
EXTT6=
EXTT7=
EXTT8=
EXTT9=
EXTT10=
EXTT11=
EXTT12=
EXTT13=
EXTT14=
EXTT15=
EXTT16=
EXTT17=
EXTT18=
EXTT19=
EXTT20=
PLAYORDER=
